<?xml version="1.0" encoding="UTF-8"?>
<svg width="42px" height="42px" viewBox="0 0 42 42" version="1.1" xmlns="http://www.w3.org/2000/svg" xmlns:xlink="http://www.w3.org/1999/xlink">
    <!-- Generator: Sketch 54.1 (76490) - https://sketchapp.com -->
    <title>ic_paper</title>
    <desc>Created with Sketch.</desc>
    <g id="ic_paper" stroke="none" stroke-width="1" fill="none" fill-rule="evenodd">
        <circle id="Oval" fill="#2C64D6" opacity="0.200000003" cx="21" cy="21" r="21"></circle>
        <path d="M17.5,8 L25.5,8 C28.5375661,8 31,10.4624339 31,13.5 L31,34 L12,34 L12,13.5 C12,10.4624339 14.4624339,8 17.5,8 Z M18,11.5 C16.8954305,11.5 16,12.3954305 16,13.5 L16,14 C16,15.1045695 16.8954305,16 18,16 L25,16 C26.1045695,16 27,15.1045695 27,14 L27,13.5 C27,12.3954305 26.1045695,11.5 25,11.5 L18,11.5 Z" id="Combined-Shape-Copy-3" fill="#2C64D6"></path>
    </g>
</svg>