<svg xmlns="http://www.w3.org/2000/svg" width="30" height="23" viewBox="0 0 30 23">
    <g fill="#FFF" fill-rule="nonzero">
        <path d="M5.093 0H1.019C.456 0 0 .44 0 .98v3.923c0 .541.456.98 1.019.98.562 0 1.018-.439 1.018-.98V1.961h3.056c.562 0 1.018-.44 1.018-.98C6.111.439 5.655 0 5.093 0zM28.981 17.116c-.562 0-1.018.44-1.018.98v2.943h-3.056c-.562 0-1.018.44-1.018.98 0 .542.456.981 1.018.981h4.074c.563 0 1.019-.44 1.019-.98v-3.923c0-.541-.456-.98-1.019-.98zM28.981 0h-4.074c-.562 0-1.018.44-1.018.98 0 .542.456.981 1.018.981h3.056v2.942c0 .541.456.98 1.018.98.563 0 1.019-.439 1.019-.98V.981C30 .439 29.544 0 28.981 0zM5.093 21.039H2.037v-2.942c0-.541-.456-.98-1.018-.98-.563 0-1.019.439-1.019.98v3.922c0 .542.456.981 1.019.981h4.074c.562 0 1.018-.44 1.018-.98 0-.542-.456-.981-1.018-.981zM3.889 3.744h2.222v15.512H3.889zM7.778 3.744H10v11.767H7.778zM11.667 3.744h2.222v11.767h-2.222zM16.111 3.744h2.222v15.512h-2.222zM20 3.744h2.222v11.767H20zM23.889 3.744h2.222v15.512h-2.222zM7.778 17.116H10v2.14H7.778zM11.667 17.116h2.222v2.14h-2.222zM20 17.116h2.222v2.14H20z"/>
    </g>
</svg>
